<svg width="24" height="24" xmlns="http://www.w3.org/2000/svg" fill-rule="evenodd" clip-rule="evenodd"><path d="M22.52 12.938c-1.01 2.101-2.911 3.677-5.425 3.301l-.096 1.222-1.239-.649.894-.791c-.293-.297-1.156-.962-1.37-2.875 1.431-1.31 2.555-3.345 2.687-5.91.961-.485 2.058-.509 3.11.041 2.294 1.202 2.376 3.709 1.439 5.661m-10.323.84l.682.923h-1.78l.679-.918c-4.73-1.408-4.84-6.647-4.84-7.154 0-2.863 1.557-5.691 5.034-5.691 3.478 0 5.034 2.796 5.034 5.66 0 .495-.174 5.855-4.809 7.18m-4.868 2.243l.892.791-1.24.649-.095-1.222c-2.22.525-4.435-1.24-5.424-3.301-.938-1.952-.856-4.459 1.438-5.661 1.037-.543 2.12-.53 3.072-.066.125 2.624 1.267 4.685 2.721 5.991-.05.409-.245 1.922-1.364 2.819m14.169-9.541c-1.169-.611-2.401-.641-3.512-.211-.195-3.713-2.61-6.269-6.014-6.269-3.385 0-5.791 2.525-6.011 6.203-.451-.167-.924-.256-1.409-.256-.697 0-1.392.179-2.068.533-1.613.845-2.484 2.386-2.484 4.144 0 .868.212 1.789.652 2.704 1.306 2.718 3.631 3.92 5.41 3.91l.129 1.652 1.428-.747c.844 1.55 1.104 3.233.807 5.285-.041.278.165.573.494.573.245 0 .457-.18.494-.428.324-2.24.023-4.168-.911-5.893l1.291-.677-1.183-1.047c.422-.553.728-1.288.9-2.118.266.178.536.335.808.466l-.958 1.397h2.183c-.691 2.065-.358 3.272-.004 4.154.342.853.639 1.589-.132 3.455-.137.331.108.691.461.691.196 0 .381-.117.461-.309.926-2.243.507-3.288.136-4.21-.336-.836-.592-1.857.13-3.781h2.02l-.969-1.418c.273-.137.548-.298.816-.483.169.846.478 1.594.907 2.156l-1.184 1.047 1.292.677c-.934 1.724-1.235 3.654-.91 5.893.035.248.249.428.493.428.33 0 .535-.295.495-.573-.298-2.052-.039-3.736.806-5.285l1.428.747.129-1.652c3.129-.015 6.062-3.399 6.062-6.614 0-1.758-.87-3.299-2.483-4.144m-.415-3.168l.481.272.091.545.406-.373.548.081-.231-.503.247-.494-.549.063-.393-.387-.109.541-.491.255zm.026 2.405l-.271-1.625-1.432-.809 1.46-.759.326-1.615 1.173 1.156 1.635-.189-.736 1.474.685 1.498-1.628-.245-1.212 1.114zm-18.818 14.49l.516.369.027-.634.51-.377-.595-.223-.2-.601-.394.497-.634.005.351.529-.191.604.61-.169zm1.251 1.877l-1.404-1.005-1.663.464.52-1.648-.955-1.439 1.727-.015 1.073-1.354.546 1.64 1.618.604-1.388 1.027-.074 1.726zm.632-21.178c-.52 0-.942.423-.942.944 0 .52.422.942.942.942s.942-.422.942-.942c0-.521-.422-.944-.942-.944m0 2.787c-1.015 0-1.841-.827-1.841-1.843s.826-1.844 1.841-1.844c1.015 0 1.841.828 1.841 1.844s-.826 1.843-1.841 1.843m-2.695.498c-.303 0-.549.247-.549.55 0 .303.246.55.549.55.303 0 .549-.247.549-.55 0-.303-.246-.55-.549-.55m0 2c-.798 0-1.448-.651-1.448-1.45 0-.799.65-1.449 1.448-1.449.798 0 1.449.65 1.449 1.449s-.651 1.45-1.449 1.45m17.08-5.391c-.262 0-.474.214-.474.475 0 .262.212.475.474.475s.474-.213.474-.475c0-.261-.212-.475-.474-.475m0 1.749c-.702 0-1.273-.571-1.273-1.274 0-.703.571-1.275 1.273-1.275s1.273.572 1.273 1.275-.571 1.274-1.273 1.274m2.435 16.023c-.578 0-1.049.47-1.049 1.05 0 .579.471 1.049 1.049 1.049s1.047-.47 1.047-1.049c0-.58-.469-1.05-1.047-1.05m0 2.999c-1.075 0-1.949-.874-1.949-1.949 0-1.076.874-1.95 1.949-1.95 1.073 0 1.947.874 1.947 1.95 0 1.075-.874 1.949-1.947 1.949"/></svg>